<svg width="2086" height="374" viewBox="0 0 2086 374" fill="none" xmlns="http://www.w3.org/2000/svg">
<path d="M797.925 326.722H772.069H771.914C764.589 326.644 758.688 320.803 758.688 313.604C758.688 306.406 764.602 300.564 771.914 300.487V300.37C778.501 299.543 783.587 294.038 783.587 287.356C783.587 280.106 777.595 274.239 770.205 274.239H735.575H710.275H675.657C668.268 274.239 662.276 280.119 662.276 287.356C662.276 294.038 667.362 299.543 673.949 300.37V300.487C681.273 300.564 687.175 306.406 687.175 313.604C687.175 320.803 681.26 326.644 673.949 326.722H673.793H669.186C661.797 326.722 655.805 332.602 655.805 339.839C655.805 347.089 661.797 352.957 669.186 352.957H717.897H727.965H797.925C805.315 352.957 811.307 347.076 811.307 339.839C811.32 332.602 805.328 326.722 797.925 326.722Z" fill="white"/>
<path d="M20.7447 175.973H112.161H112.407C123.757 175.844 132.906 166.798 132.906 155.645C132.906 144.491 123.744 135.445 112.407 135.316V135.135C102.21 133.855 94.3283 125.313 94.3283 114.974C94.3283 103.743 103.62 94.6322 115.073 94.6322H276.062V216.644H20.7447C9.29175 216.644 -3.05176e-05 207.533 -3.05176e-05 196.302C-3.05176e-05 185.072 9.29175 175.973 20.7447 175.973Z" fill="white"/>
<path d="M530.317 173.973H438.9H438.654C427.305 173.844 418.156 164.798 418.156 153.645C418.156 142.491 427.318 133.445 438.654 133.316V133.135C448.852 131.855 456.733 123.313 456.733 112.974C456.733 101.743 447.441 92.6322 435.988 92.6322H275V214.644H530.317C541.77 214.644 551.062 205.533 551.062 194.302C551.062 183.072 541.77 173.973 530.317 173.973Z" fill="white"/>
<path d="M1674.08 286.22H1744.92H1745.11C1753.91 286.12 1761 279.109 1761 270.465C1761 261.822 1753.9 254.811 1745.11 254.711V254.571C1737.21 253.579 1731.1 246.959 1731.1 238.947C1731.1 230.243 1738.3 223.182 1747.18 223.182H1871.94V317.739H1674.08C1665.2 317.739 1658 310.678 1658 301.974C1658 293.271 1665.2 286.22 1674.08 286.22Z" fill="white"/>
<path d="M2068.99 284.67H1998.14H1997.95C1989.15 284.57 1982.06 277.559 1982.06 268.916C1982.06 260.272 1989.16 253.261 1997.95 253.161V253.021C2005.85 252.029 2011.96 245.409 2011.96 237.397C2011.96 228.693 2004.76 221.632 1995.88 221.632H1871.12V316.189H2068.99C2077.86 316.189 2085.06 309.128 2085.06 300.424C2085.06 291.721 2077.86 284.67 2068.99 284.67Z" fill="white"/>
<path d="M1434.88 161.364C1439.59 156.634 1447.12 155.432 1453.24 158.883C1454.76 159.736 1456.06 160.808 1457.15 162.036C1456.76 158.12 1454.52 154.45 1450.78 152.33C1447.66 150.573 1444.09 150.25 1440.88 151.141C1440.05 147.962 1437.98 145.106 1434.85 143.349C1431.11 141.242 1426.74 141.19 1423.09 142.832C1424.72 143.129 1426.31 143.697 1427.83 144.55C1433.93 148.014 1436.68 155.006 1434.88 161.364Z" fill="#0470BB"/>
<path d="M1496.88 150.521C1506.34 141.035 1521.49 138.619 1533.76 145.533C1536.8 147.252 1539.43 149.397 1541.6 151.865C1540.84 144.008 1536.32 136.615 1528.81 132.376C1522.53 128.835 1515.36 128.189 1508.91 129.986C1507.26 123.614 1503.08 117.876 1496.8 114.335C1489.28 110.096 1480.5 109.993 1473.18 113.301C1476.45 113.909 1479.67 115.046 1482.71 116.752C1494.99 123.679 1500.48 137.727 1496.88 150.521Z" fill="#0470BB"/>
<path d="M473.115 63.6358C475.459 63.6358 477.359 61.738 477.359 59.3969C477.359 57.0558 475.459 55.158 473.115 55.158C470.77 55.158 468.87 57.0558 468.87 59.3969C468.87 61.738 470.77 63.6358 473.115 63.6358Z" fill="white"/>
<path d="M759.645 54.1886C759.645 56.5278 757.743 58.4276 755.401 58.4276C753.058 58.4276 751.156 56.5278 751.156 54.1886C751.156 51.8495 753.058 49.9497 755.401 49.9497C757.743 49.9497 759.645 51.8495 759.645 54.1886Z" fill="white"/>
<path d="M323.98 4.23895C323.98 6.57812 322.078 8.47789 319.735 8.47789C317.393 8.47789 315.491 6.57812 315.491 4.23895C315.491 1.89977 317.393 0 319.735 0C322.078 0 323.98 1.89977 323.98 4.23895Z" fill="white"/>
<path d="M1117.69 47.9723C1117.69 50.3115 1115.79 52.2113 1113.44 52.2113C1111.1 52.2113 1109.2 50.3115 1109.2 47.9723C1109.2 45.6332 1111.1 43.7334 1113.44 43.7334C1115.8 43.7334 1117.69 45.6332 1117.69 47.9723Z" fill="white"/>
<path d="M1790.98 157.991C1790.98 160.33 1789.08 162.23 1786.74 162.23C1784.39 162.23 1782.49 160.33 1782.49 157.991C1782.49 155.652 1784.39 153.752 1786.74 153.752C1789.08 153.752 1790.98 155.652 1790.98 157.991Z" fill="white"/>
<path d="M1528.83 53.62C1528.83 55.9592 1526.93 57.859 1524.59 57.859C1522.24 57.859 1520.34 55.9592 1520.34 53.62C1520.34 51.2809 1522.24 49.3811 1524.59 49.3811C1526.93 49.3811 1528.83 51.2809 1528.83 53.62Z" fill="white"/>
<path d="M434.847 221.743C434.847 224.082 432.945 225.982 430.603 225.982C428.26 225.982 426.358 224.082 426.358 221.743C426.358 219.404 428.26 217.504 430.603 217.504C432.945 217.504 434.847 219.404 434.847 221.743Z" fill="white"/>
<path d="M1390.72 43.7206C1393.07 43.7206 1394.97 41.8227 1394.97 39.4816C1394.97 37.1405 1393.07 35.2427 1390.72 35.2427C1388.38 35.2427 1386.48 37.1405 1386.48 39.4816C1386.48 41.8227 1388.38 43.7206 1390.72 43.7206Z" fill="white"/>
<path d="M1542.45 297.398C1544.79 297.398 1546.69 295.5 1546.69 293.159C1546.69 290.818 1544.79 288.92 1542.45 288.92C1540.1 288.92 1538.2 290.818 1538.2 293.159C1538.2 295.5 1540.1 297.398 1542.45 297.398Z" fill="white"/>
<path d="M1642.46 222.26C1642.46 224.599 1640.55 226.499 1638.21 226.499C1635.87 226.499 1633.97 224.599 1633.97 222.26C1633.97 219.921 1635.87 218.021 1638.21 218.021C1640.55 218.021 1642.46 219.921 1642.46 222.26Z" fill="white"/>
<path d="M1312.8 41.4202C1311.54 41.4202 1310.5 42.4541 1310.5 43.7206C1310.5 44.9871 1311.54 46.021 1312.8 46.021C1314.07 46.021 1315.11 44.9871 1315.11 43.7206C1315.11 42.4541 1314.07 41.4202 1312.8 41.4202Z" fill="white"/>
<path d="M615.817 32.9552C614.549 32.9552 613.513 33.9891 613.513 35.2556C613.513 36.5221 614.549 37.556 615.817 37.556C617.085 37.556 618.121 36.5221 618.121 35.2556C618.121 33.9762 617.085 32.9552 615.817 32.9552Z" fill="white"/>
<path d="M921.682 23.5081C920.414 23.5081 919.379 24.5419 919.379 25.8085C919.379 27.075 920.414 28.1089 921.682 28.1089C922.95 28.1089 923.986 27.075 923.986 25.8085C923.986 24.5419 922.95 23.5081 921.682 23.5081Z" fill="white"/>
<path d="M853.728 148.802C852.46 148.802 851.424 149.836 851.424 151.103C851.424 152.369 852.46 153.403 853.728 153.403C854.996 153.403 856.031 152.369 856.031 151.103C856.031 149.823 854.996 148.802 853.728 148.802Z" fill="white"/>
<path d="M818.683 92.9854C817.415 92.9854 816.38 94.0192 816.38 95.2858C816.38 96.5523 817.415 97.5862 818.683 97.5862C819.951 97.5862 820.987 96.5523 820.987 95.2858C820.974 94.0192 819.951 92.9854 818.683 92.9854Z" fill="white"/>
<path d="M642.709 179.444C641.441 179.444 640.405 180.478 640.405 181.745C640.405 183.011 641.441 184.045 642.709 184.045C643.977 184.045 645.012 183.011 645.012 181.745C645.012 180.478 643.977 179.444 642.709 179.444Z" fill="white"/>
<path d="M357.821 248.676C356.553 248.676 355.518 249.71 355.518 250.976C355.518 252.243 356.553 253.277 357.821 253.277C359.09 253.277 360.125 252.243 360.125 250.976C360.125 249.71 359.09 248.676 357.821 248.676Z" fill="white"/>
<path d="M1337.22 174.262C1335.96 174.262 1334.92 175.296 1334.92 176.562C1334.92 177.829 1335.96 178.863 1337.22 178.863C1338.49 178.863 1339.53 177.829 1339.53 176.562C1339.53 175.296 1338.51 174.262 1337.22 174.262Z" fill="white"/>
<path d="M1613.91 104.216C1612.64 104.216 1611.6 105.25 1611.6 106.516C1611.6 107.783 1612.64 108.817 1613.91 108.817C1615.17 108.817 1616.21 107.783 1616.21 106.516C1616.21 105.25 1615.17 104.216 1613.91 104.216Z" fill="white"/>
<path d="M1339.53 283.272C1338.26 283.272 1337.22 284.306 1337.22 285.573C1337.22 286.839 1338.26 287.873 1339.53 287.873C1340.8 287.873 1341.83 286.839 1341.83 285.573C1341.83 284.306 1340.81 283.272 1339.53 283.272Z" fill="white"/>
<path d="M699.974 146.502C698.705 146.502 697.67 147.536 697.67 148.802C697.67 150.069 698.705 151.103 699.974 151.103C701.242 151.103 702.277 150.069 702.277 148.802C702.277 147.523 701.242 146.502 699.974 146.502Z" fill="white"/>
<path d="M1444.36 230.867C1444.36 233.206 1442.46 235.106 1440.12 235.106C1437.78 235.106 1435.87 233.206 1435.87 230.867C1435.87 228.528 1437.78 226.628 1440.12 226.628C1442.46 226.628 1444.36 228.528 1444.36 230.867Z" fill="white"/>
<path opacity="0.6" d="M262 364.543L853.083 366.334C785.691 353.73 709.957 370.983 641.925 359.552C615.429 355.095 589.915 346.329 562.416 347.737C544.155 348.675 526.32 354.135 508.357 352.066C484.528 349.337 470.917 334.792 449.328 328.458C424.005 321.015 393.029 326.133 367.387 333.235C341.765 340.337 316.443 349.528 287.941 350.126C279.259 350.296 270.619 349.656 261.957 349.102V364.543H262Z" fill="white"/>
<path opacity="0.6" d="M938.267 168.357C925.68 165.777 914.31 161.81 901.616 159.357C833.862 146.327 754.032 179.788 688.816 163.772C676.358 160.701 665.158 155.924 651.504 154.729C619.312 151.914 594.95 169.551 563.654 174.265C550.96 176.184 537.435 175.885 524.187 176.035C495.366 176.355 466.651 178.85 439.28 183.457L1118.62 181.622C1070.41 161.916 995.654 180.108 938.267 168.357Z" fill="white"/>
<path opacity="0.6" d="M1862 358.934C1827.35 355.649 1790.34 341.509 1757.49 350.744C1748.81 353.197 1741.04 357.163 1732.44 359.744C1693.23 371.495 1642.14 353.303 1609.2 372.988L1862 373.99V358.934Z" fill="white"/>
</svg>
