<svg width="1517" height="290" viewBox="0 0 1517 290" fill="none" xmlns="http://www.w3.org/2000/svg">
<path d="M1405.23 106.191L1346.15 0.00927734V106.191V279.961H1503.72L1405.23 106.191Z" fill="#D97327"/>
<path d="M1405.24 106.193L1346.14 0V106.193L1368.72 128.325C1372.57 132.098 1378.8 132.098 1382.65 128.325L1405.24 106.193Z" fill="#EFC978"/>
<path d="M1287.06 106.193L1188.59 279.962H1346.15V106.193V0.0107422L1287.06 106.193Z" fill="#F7952C"/>
<path d="M1139.35 120.672L1040.87 279.961H1193.51V120.672V28.9697L1139.35 120.672Z" fill="#30BAA8"/>
<path d="M1139.35 120.673L1157.07 141.508C1158.84 143.598 1161.43 144.852 1164.18 144.97C1166.95 145.099 1169.64 144.07 1171.6 142.151L1193.52 120.662V28.949L1139.35 120.673Z" fill="#FFF2C2"/>
<path d="M1247.67 120.671L1193.5 28.969V120.671V279.961H1346.15L1247.67 120.671Z" fill="#0D7E74"/>
<path d="M1247.67 120.673L1229.95 141.508C1228.18 143.598 1225.6 144.852 1222.84 144.97C1220.08 145.099 1217.38 144.07 1215.43 142.151L1193.5 120.673V28.9597L1247.67 120.673Z" fill="#EFC978"/>
<path d="M1287.06 106.193L1346.14 0V106.193L1323.56 128.325C1319.72 132.098 1313.48 132.098 1309.63 128.325L1287.06 106.193Z" fill="#FFF2C2"/>
<path d="M1405.24 231.689C1403.14 231.689 1401.2 230.36 1400.53 228.302L1375.91 151.069C1375.1 148.518 1376.55 145.817 1379.14 145.024C1381.72 144.231 1384.5 145.646 1385.31 148.186L1409.93 225.408C1410.73 227.959 1409.29 230.66 1406.69 231.453C1406.22 231.624 1405.72 231.689 1405.24 231.689Z" fill="#F7952C"/>
<path d="M989.899 217.166L965 286.457H994.546V213.94C992.454 213.94 990.586 215.237 989.899 217.166Z" fill="#30BAA8"/>
<path d="M994.546 213.94V286.457H1024.08L999.194 217.166C998.496 215.237 996.628 213.94 994.546 213.94Z" fill="#0D7E74"/>
<path d="M1033.05 203.21L1002.74 289.146H1037.21V199.105C1035.52 199.094 1033.97 200.648 1033.05 203.21Z" fill="#30BAA8"/>
<path d="M1037.21 199.096V289.137H1071.67L1041.35 203.2C1040.46 200.65 1038.89 199.096 1037.21 199.096Z" fill="#0D7E74"/>
<path d="M1450.53 200.18L1398.97 279.608H1457.59V196.393C1454.72 196.38 1452.06 197.815 1450.53 200.18Z" fill="#30BAA8"/>
<path d="M1457.59 196.382V279.597H1516.21L1464.65 200.168C1463.11 197.816 1460.45 196.382 1457.59 196.382Z" fill="#0D7E74"/>
<path d="M1395.19 283.188C1395.18 282.009 1395.22 280.841 1395.32 279.694C1394.35 280.273 1393.39 280.83 1392.4 281.377C1390.71 282.299 1388.99 282.899 1387.28 283.188H1395.19V283.188Z" fill="#A6533A"/>
<path d="M1413.12 129.933H1394.33V173.683H1413.12V129.933Z" fill="#D47C28"/>
<path d="M1481.73 72.2815C1479.42 73.7284 1476.8 75.9041 1474.79 77.351C1472.79 78.8087 1471.14 80.62 1469.44 82.8815C1468.59 84.0069 1467.68 85.2394 1466.67 86.5149C1465.62 87.7903 1464.53 89.1086 1463.19 90.3411C1460.59 92.8705 1457.32 94.8534 1454.06 96.2467C1450.77 97.6722 1447.44 98.5832 1444.17 99.2155C1442.52 99.5799 1440.91 99.7729 1439.28 100.03C1437.65 100.234 1435.95 100.405 1434.33 100.555L1429.75 100.888C1428.54 101.005 1427.37 101.188 1426.26 101.466C1424.06 102.045 1422.16 102.935 1420.65 104.156C1419.9 104.767 1419.23 105.464 1418.62 106.204C1418.04 106.975 1417.51 107.79 1417.08 108.679C1416.24 110.469 1415.65 112.495 1415.41 114.66C1415.29 115.743 1415.23 116.836 1415.29 117.929C1415.31 118.476 1415.36 119.011 1415.43 119.526C1415.47 119.783 1415.52 120.03 1415.57 120.265C1415.62 120.458 1415.68 120.759 1415.78 120.716L1392.19 119.526C1392.31 118.744 1392.45 118.304 1392.58 117.757C1392.72 117.254 1392.86 116.761 1393.01 116.289C1393.31 115.335 1393.61 114.414 1393.96 113.502C1394.65 111.691 1395.38 109.923 1396.25 108.197C1397.14 106.472 1398.07 104.767 1399.16 103.128C1400.27 101.488 1401.5 99.9015 1402.84 98.3903C1404.22 96.9005 1405.72 95.4965 1407.35 94.221C1409.01 92.9885 1410.74 91.8524 1412.6 90.952C1416.28 89.1086 1420.24 88.1225 1424.01 87.7474C1425.9 87.5438 1427.75 87.5116 1429.57 87.5759L1434.07 87.7367C1435.48 87.7367 1436.81 87.7581 1438.2 87.7367C1439.57 87.6617 1440.99 87.6509 1442.33 87.5009C1445.05 87.2758 1447.66 86.8364 1450.02 86.0968C1452.4 85.3573 1454.47 84.3391 1456.34 82.8386C1457.3 82.1312 1458.21 81.2095 1459.16 80.2556C1460.1 79.2589 1461.08 78.1549 1462.14 76.9866C1464.26 74.6609 1466.87 72.1421 1469.89 70.2772C1472.91 68.4016 1476.19 67.1691 1479.41 66.3224C1479.41 66.3224 1492.16 61.51 1501.23 62.7854C1493.99 65.6793 1486.27 69.4413 1481.73 72.2815Z" fill="white"/>
<path d="M1417.81 125.324C1417.81 127.864 1415.71 129.922 1413.11 129.922H1394.32C1391.72 129.922 1389.62 127.864 1389.62 125.324V120.716C1389.62 118.176 1391.72 116.107 1394.32 116.107H1413.11C1415.71 116.107 1417.81 118.165 1417.81 120.716V125.324Z" fill="#83432D"/>
<path d="M1403.73 129.933H1394.33V173.683H1403.73V129.933Z" fill="#F89B39"/>
<path d="M1417.81 256.554H1272.21V279.576H1417.81V256.554Z" fill="#83432D"/>
<path d="M1417.81 201.303H1272.21V215.119H1417.81V201.303Z" fill="#F89B39"/>
<path d="M1417.81 228.923H1272.21V242.739H1417.81V228.923Z" fill="#F89B39"/>
<path d="M1403.72 215.108H1286.3V228.923H1403.72V215.108Z" fill="#D47C28"/>
<path d="M1403.72 242.739H1286.3V256.554H1403.72V242.739Z" fill="#D47C28"/>
<path d="M1415.47 173.673H1274.56V187.488H1415.47V173.673Z" fill="#F89B39"/>
<path d="M1403.72 187.488H1286.3V201.304H1403.72V187.488Z" fill="#D47C28"/>
<path d="M1359.11 118.422H1330.92V132.237H1359.11V118.422Z" fill="#F89B39"/>
<path d="M1387.29 146.053H1302.74V159.868H1387.29V146.053Z" fill="#F89B39"/>
<path d="M1373.19 132.237H1316.82V146.053H1373.19V132.237Z" fill="#B66C29"/>
<path d="M1401.38 159.857H1288.65V173.673H1401.38V159.857Z" fill="#B66C29"/>
<path d="M1368.5 256.554H1321.52V202.718C1321.52 200.66 1323.63 198.999 1326.22 198.999H1363.8C1366.39 198.999 1368.5 200.66 1368.5 202.718V256.554V256.554Z" fill="#83432D"/>
<path d="M1359.11 208.206H1330.92V249.652H1359.11V208.206Z" fill="#FDEBA1"/>
<path d="M1359.11 208.206H1345.02V249.652H1359.11V208.206Z" fill="#F1CF86"/>
<path d="M1286.3 215.108H1272.21V228.923H1286.3V215.108Z" fill="#A6533A"/>
<path d="M1286.3 187.488H1272.21V201.304H1286.3V187.488Z" fill="#A6533A"/>
<path d="M1286.3 242.739H1272.21V256.554H1286.3V242.739Z" fill="#A6533A"/>
<path d="M1417.81 242.739H1403.72V256.554H1417.81V242.739Z" fill="#A6533A"/>
<path d="M1417.81 215.108H1403.72V228.923H1417.81V215.108Z" fill="#A6533A"/>
<path d="M1417.81 187.488H1403.72V201.304H1417.81V187.488Z" fill="#A6533A"/>
<path d="M1368.5 182.879C1368.5 185.42 1366.39 187.488 1363.8 187.488H1326.22C1323.63 187.488 1321.52 185.42 1321.52 182.879V164.466C1321.52 161.926 1323.63 159.857 1326.22 159.857H1363.8C1366.39 159.857 1368.5 161.915 1368.5 164.466V182.879Z" fill="#83432D"/>
<path d="M1359.11 169.064H1330.92V178.271H1359.11V169.064Z" fill="#FDEBA1"/>
<path d="M1359.11 169.064H1345.02V178.271H1359.11V169.064Z" fill="#F1CF86"/>
<path d="M1410.77 125.324H1396.68C1395.38 125.324 1394.33 124.295 1394.33 123.02C1394.33 121.745 1395.38 120.716 1396.68 120.716H1410.77C1412.07 120.716 1413.12 121.745 1413.12 123.02C1413.12 124.295 1412.07 125.324 1410.77 125.324Z" fill="#A84C31"/>
<path d="M1396.81 249.447L1384.93 282.501H1399.02V247.914C1398.03 247.903 1397.14 248.525 1396.81 249.447Z" fill="#30BAA8"/>
<path d="M1399.03 247.905V282.491H1413.12L1401.24 249.437C1400.91 248.526 1400.02 247.905 1399.03 247.905Z" fill="#0D7E74"/>
<path d="M1244.03 236.662L1231.71 287.004H1245.8V235.29C1244.96 235.301 1244.23 235.869 1244.03 236.662Z" fill="#30BAA8"/>
<path d="M1245.8 235.301V287.015H1259.9L1247.58 236.673C1247.37 235.869 1246.64 235.301 1245.8 235.301Z" fill="#0D7E74"/>
<path d="M1341.72 105.561L1256.74 188.839C1255.86 189.707 1255.37 190.875 1255.37 192.097C1255.37 193.319 1255.86 194.487 1256.74 195.355L1259.52 198.077C1260.43 198.978 1261.63 199.428 1262.84 199.428C1264.03 199.428 1265.22 198.988 1266.13 198.099L1343.35 123.47C1343.81 123.02 1344.41 122.795 1345.02 122.795V104.232C1343.81 104.221 1342.63 104.671 1341.72 105.561Z" fill="#A6533A"/>
<path d="M1265.16 192.086C1263.81 192.086 1262.81 191.014 1262.81 189.782C1262.81 189.192 1263.03 188.603 1263.49 188.153L1338.64 114.478C1339.1 114.028 1339.7 113.803 1340.3 113.803C1341.65 113.803 1342.65 114.874 1342.65 116.107C1342.65 116.696 1342.42 117.286 1341.97 117.736L1266.82 191.411C1266.36 191.861 1265.76 192.086 1265.16 192.086Z" fill="#C46247"/>
<path d="M1348.11 105.561L1432.99 188.839C1433.87 189.707 1434.31 190.875 1434.31 192.097C1434.31 193.319 1433.78 194.487 1432.9 195.355L1430.12 198.077C1429.21 198.978 1428 199.428 1426.8 199.428C1425.61 199.428 1424.41 198.988 1423.49 198.099L1346.48 123.47C1346.01 123.02 1345.02 122.795 1345.02 122.795V104.232C1345.02 104.221 1347.19 104.671 1348.11 105.561Z" fill="#83432D"/>
<path d="M1424.87 192.086C1426.21 192.086 1427.22 191.014 1427.22 189.782C1427.22 189.192 1426.98 188.603 1426.53 188.153L1351.38 114.478C1350.92 114.028 1350.32 113.803 1349.72 113.803C1348.38 113.803 1347.37 114.874 1347.37 116.107C1347.37 116.696 1347.59 117.286 1348.05 117.736L1423.2 191.411C1423.66 191.861 1424.26 192.086 1424.87 192.086Z" fill="#C46247"/>
<path d="M1337.96 231.228C1336.67 231.228 1335.61 230.199 1335.61 228.923V215.108C1335.61 213.843 1336.67 212.804 1337.96 212.804C1339.26 212.804 1340.31 213.833 1340.31 215.108V228.923C1340.31 230.199 1339.26 231.228 1337.96 231.228Z" fill="white"/>
<path d="M558.102 278.537C563.408 270.951 566.527 261.775 566.527 251.876C566.527 225.822 544.98 204.705 518.398 204.705C491.817 204.705 470.27 225.822 470.27 251.876C470.27 261.775 473.376 270.951 478.695 278.537H558.102Z" fill="#FDE295"/>
<path d="M578.161 276.599C578.161 278.744 576.297 280.476 573.994 280.476H463.463V261.09H573.994C576.297 261.09 578.161 262.822 578.161 264.968V276.599Z" fill="#AA3D24"/>
<path d="M469.39 276.599C469.39 278.744 467.617 280.476 465.43 280.476H461.47C459.283 280.476 457.51 278.744 457.51 276.599V264.968C457.51 262.822 459.283 261.09 461.47 261.09H465.43C467.617 261.09 469.39 262.822 469.39 264.968V276.599Z" fill="#FDE295"/>
<path d="M537.137 250.105C537.021 249.33 536.438 248.71 535.662 248.516C534.886 248.335 534.07 248.619 533.604 249.239L530.498 253.349C530.498 243.708 527.302 234.17 521.867 226.003L520.055 223.328C519.693 222.785 519.071 222.462 518.411 222.462C517.751 222.462 517.13 222.785 516.755 223.328L514.943 226.003C509.508 234.17 506.311 243.708 506.311 253.349L503.206 249.239C502.727 248.619 501.911 248.322 501.148 248.516C500.371 248.71 499.789 249.33 499.673 250.105C499.349 252.16 499.88 254.228 501.148 256.36C503.141 259.733 506.609 261.09 510.711 261.09H526.111C530.214 261.09 533.682 259.733 535.675 256.36C536.93 254.228 537.461 252.173 537.137 250.105Z" fill="#DD632B"/>
<path d="M465.43 274.66C465.43 275.733 464.537 276.599 463.45 276.599C462.35 276.599 461.47 275.733 461.47 274.66V266.906C461.47 265.833 462.35 264.968 463.45 264.968C464.537 264.968 465.43 265.833 465.43 266.906V274.66Z" fill="#D37E29"/>
<path d="M467.41 164.15C467.41 162.005 465.637 160.273 463.45 160.273C461.263 160.273 459.503 162.005 459.503 164.15V173.701C459.503 175.963 457.601 177.72 455.284 177.72H443.676V185.474H459.464C464.084 185.474 467.41 182.334 467.41 177.811V164.15V164.15Z" fill="#AA3D24"/>
<path d="M582.38 177.72C580.076 177.72 578.161 175.963 578.161 173.701V164.15C578.161 162.005 576.388 160.273 574.201 160.273C572.014 160.273 570.241 162.005 570.241 164.15V177.798C570.241 182.334 573.554 185.461 578.187 185.461H593.975V177.707H582.38V177.72Z" fill="#AA3D24"/>
<path d="M540.58 202.87C540.58 207.406 537.668 210.675 533.048 210.675H503.762C499.142 210.675 495.104 207.393 495.104 202.87V189.352H540.592V202.87H540.58Z" fill="#30BAA8"/>
<path d="M614.875 173.843C614.875 176.105 612.999 177.72 610.695 177.72H601.895V169.966H610.695C612.999 169.966 614.875 171.582 614.875 173.843Z" fill="#D97327"/>
<path d="M542.469 183.536C544.203 183.536 545.614 184.751 545.614 186.444C545.614 188.15 544.203 189.352 542.469 189.352H494.341C492.607 189.352 491.196 188.15 491.196 186.444C491.196 184.738 492.607 183.536 494.341 183.536H542.469Z" fill="#FFF2C2"/>
<path d="M536.633 177.72H532.673V183.536H536.633V177.72Z" fill="#0D7E74"/>
<path d="M503.011 200.983C503.011 202.055 502.131 202.921 501.031 202.921C499.944 202.921 499.051 202.055 499.051 200.983V195.167C499.051 194.094 499.931 193.229 501.031 193.229C502.131 193.229 503.011 194.094 503.011 195.167V200.983Z" fill="#92D4D6"/>
<path d="M524.675 253.698C524.675 257.097 521.867 259.85 518.398 259.85C514.93 259.85 512.122 257.097 512.122 253.698C512.122 241.395 518.398 233.188 518.398 233.188C518.398 233.188 524.675 241.395 524.675 253.698Z" fill="#FCB62A"/>
<path d="M520.495 251.643C520.495 252.768 519.563 253.698 518.398 253.698C517.247 253.698 516.302 252.781 516.302 251.643C516.302 247.534 518.398 243.437 518.398 243.437C518.398 243.437 520.495 247.547 520.495 251.643Z" fill="#FDE295"/>
<path d="M540.58 202.87C540.58 207.406 537.668 210.675 533.048 210.675H518.838V189.352H540.592V202.87H540.58Z" fill="#0D7E74"/>
<path d="M601.895 278.537C601.895 279.61 601.015 280.476 599.915 280.476H595.968C594.868 280.476 593.988 279.61 593.988 278.537V158.335C593.988 156.19 595.761 154.458 597.948 154.458C600.135 154.458 601.908 156.19 601.908 158.335V278.537H601.895Z" fill="#AA3D24"/>
<path d="M443.676 278.537C443.676 279.61 442.796 280.476 441.696 280.476H437.736C436.649 280.476 435.756 279.61 435.756 278.537V158.335C435.756 156.19 437.529 154.458 439.716 154.458C441.903 154.458 443.676 156.19 443.676 158.335V278.537V278.537Z" fill="#AA3D24"/>
<path d="M423.902 173.843C423.902 175.989 425.675 177.72 427.862 177.72H455.543C457.73 177.72 459.503 175.989 459.503 173.843V169.966H427.862C425.675 169.966 423.902 171.711 423.902 173.843Z" fill="#D97327"/>
<path d="M593.975 169.966H467.41V177.72H593.975V169.966Z" fill="#D97327"/>
<path d="M536.633 169.966C536.633 167.821 534.86 166.089 532.673 166.089H503.011C500.824 166.089 499.064 167.821 499.064 169.966V183.536H503.011V169.966H536.633Z" fill="#0D7E74"/>
<path d="M530.693 150.581C530.693 153.799 528.04 156.396 524.765 156.396C521.491 156.396 518.838 153.799 518.838 150.581C518.838 147.376 521.491 144.765 524.765 144.765C528.04 144.765 530.693 147.376 530.693 150.581Z" fill="white"/>
<path d="M518.838 133.134C518.838 135.279 517.066 137.011 514.878 137.011C512.691 137.011 510.918 135.279 510.918 133.134C510.918 130.988 512.691 129.257 514.878 129.257C517.066 129.257 518.838 131.001 518.838 133.134Z" fill="white"/>
<path d="M572.234 266.893C572.234 267.966 571.354 268.832 570.254 268.832H477.31C476.223 268.832 475.33 267.966 475.33 266.893C475.33 265.82 476.21 264.955 477.31 264.955H570.254C571.341 264.968 572.234 265.833 572.234 266.893Z" fill="#D97327"/>
<path d="M514.878 274.66C514.878 275.733 513.998 276.599 512.898 276.599H477.297C476.21 276.599 475.317 275.733 475.317 274.66C475.317 273.588 476.197 272.722 477.297 272.722H512.898C513.985 272.722 514.878 273.588 514.878 274.66Z" fill="#D97327"/>
<path d="M572.234 274.66C572.234 275.733 571.354 276.599 570.254 276.599H524.765C523.678 276.599 522.785 275.733 522.785 274.66C522.785 273.588 523.665 272.722 524.765 272.722H570.254C571.341 272.722 572.234 273.588 572.234 274.66Z" fill="#D97327"/>
<path d="M37.3871 176.674L0 280.721H44.3624V171.827C41.2306 171.827 38.4224 173.766 37.3871 176.674Z" fill="#30BAA8"/>
<path d="M44.3625 171.827V280.721H88.725L51.3379 176.674C50.2896 173.766 47.4943 171.827 44.3625 171.827Z" fill="#0D7E74"/>
<path d="M83.7813 227.179L50.8977 277.839H88.2848V224.762C86.4601 224.762 84.7648 225.68 83.7813 227.179Z" fill="#30BAA8"/>
<path d="M88.2847 224.762V277.839H125.672L92.7882 227.179C91.8176 225.68 90.1094 224.762 88.2847 224.762Z" fill="#0D7E74"/>
<path d="M389.491 222.707L363.893 287.338H393.153V220.95C391.406 220.963 389.905 221.686 389.491 222.707Z" fill="#30BAA8"/>
<path d="M393.153 220.963V287.351H422.413L396.816 222.72C396.415 221.686 394.9 220.963 393.153 220.963Z" fill="#0D7E74"/>
<path d="M239.969 78.131V287.351H365.395C368.552 287.351 371.309 285.245 372.085 282.233L381.105 246.849L239.969 78.131Z" fill="#D97327"/>
<path d="M98.8318 246.849L107.852 282.233C108.615 285.232 111.372 287.351 114.529 287.351H239.968V78.131L98.8318 246.849Z" fill="#F7952C"/>
<path d="M197.392 287.338L239.968 91.6233L281.277 287.338H197.392Z" fill="#743622"/>
<path d="M214.5 36.7109C213.193 35.16 211.252 34.2683 209.194 34.2683H205.985C204.652 34.2683 203.435 35.0179 202.866 36.2069C202.297 37.3829 202.478 38.7916 203.332 39.7867L235.116 77.4719L60.9658 287.338H74.7353L239.968 88.2502V67.9989L214.5 36.7109Z" fill="#DD5845"/>
<path d="M265.45 36.7109C266.757 35.16 268.698 34.2683 270.756 34.2683H273.978C275.311 34.2683 276.527 35.0179 277.097 36.2069C277.653 37.3829 277.485 38.7916 276.631 39.7867L244.86 77.4719L418.997 287.351H405.228L239.969 88.2502V67.9989L265.45 36.7109Z" fill="#C53727"/>
<path d="M239.969 91.6233L326.675 242.015C328.292 244.82 327.658 248.361 325.16 250.454L281.264 287.338L239.969 91.6233Z" fill="#FFF2C2"/>
<path d="M138.277 71.1909C136.698 62.8035 140.891 53.9896 148.953 50.0349C150.959 49.0527 153.03 48.4583 155.113 48.1998C150.7 45.7702 145.187 45.4729 140.244 47.8896C136.116 49.9057 133.191 53.4338 131.806 57.466C127.859 56.0315 123.33 56.1607 119.201 58.1768C114.258 60.5935 111.036 65.1685 110.143 70.1958C111.631 68.6966 113.391 67.4172 115.397 66.4479C123.472 62.5062 132.841 64.6903 138.277 71.1909Z" fill="#A6533A"/>
<path d="M88.1941 54.261C87.1588 48.7684 89.9024 43.0045 95.1824 40.4197C96.4894 39.7736 97.8483 39.3859 99.22 39.2179C96.3341 37.6282 92.7235 37.4344 89.4882 39.0111C86.7835 40.3293 84.8682 42.6426 83.9753 45.279C81.387 44.3485 78.4235 44.4261 75.7318 45.7443C72.4965 47.321 70.387 50.3193 69.8047 53.6148C70.7882 52.6326 71.94 51.8055 73.247 51.1593C78.5012 48.5746 84.6353 49.9962 88.1941 54.261Z" fill="#A6533A"/>
</svg>
